<?xml version="1.0" encoding="UTF-8" standalone="no"?>
<!-- Created with Inkscape (http://www.inkscape.org/) -->

<svg
   xmlns:dc="http://purl.org/dc/elements/1.1/"
   xmlns:cc="http://creativecommons.org/ns#"
   xmlns:rdf="http://www.w3.org/1999/02/22-rdf-syntax-ns#"
   xmlns:svg="http://www.w3.org/2000/svg"
   xmlns="http://www.w3.org/2000/svg"
   xmlns:xlink="http://www.w3.org/1999/xlink"
   xmlns:sodipodi="http://sodipodi.sourceforge.net/DTD/sodipodi-0.dtd"
   xmlns:inkscape="http://www.inkscape.org/namespaces/inkscape"
   width="524.40942"
   height="744.09448"
   id="svg2"
   sodipodi:version="0.32"
   inkscape:version="0.47 r22583"
   sodipodi:docname="icon.svg"
   inkscape:output_extension="org.inkscape.output.svg.inkscape"
   version="1.0"
   inkscape:export-filename="/home/ruka/Ãrea de Trabalho/WiFih.png"
   inkscape:export-xdpi="429.04599"
   inkscape:export-ydpi="429.04599">
  <defs
     id="defs4">
    <inkscape:perspective
       sodipodi:type="inkscape:persp3d"
       inkscape:vp_x="0 : 372.04724 : 1"
       inkscape:vp_y="0 : 1000 : 0"
       inkscape:vp_z="524.40942 : 372.04724 : 1"
       inkscape:persp3d-origin="262.20471 : 248.03149 : 1"
       id="perspective15" />
    <inkscape:perspective
       id="perspective2887"
       inkscape:persp3d-origin="0.5 : 0.33333333 : 1"
       inkscape:vp_z="1 : 0.5 : 1"
       inkscape:vp_y="0 : 1000 : 0"
       inkscape:vp_x="0 : 0.5 : 1"
       sodipodi:type="inkscape:persp3d" />
    <filter
       color-interpolation-filters="sRGB"
       id="filter7120">
      <feGaussianBlur
         stdDeviation="3.92425"
         id="feGaussianBlur12" />
    </filter>
    <linearGradient
       x1="260"
       y1="146"
       x2="260"
       y2="166"
       id="linearGradient2836"
       xlink:href="#linearGradient5158"
       gradientUnits="userSpaceOnUse"
       gradientTransform="matrix(0.56019162,0,0,0.53488053,73.61197,199.34637)" />
    <linearGradient
       id="linearGradient5158">
      <stop
         style="stop-color:#e6e699"
         offset="0"
         id="stop7" />
      <stop
         style="stop-color:#aeae2a"
         offset="1"
         id="stop9" />
    </linearGradient>
    <inkscape:perspective
       id="perspective5771"
       inkscape:persp3d-origin="0.5 : 0.33333333 : 1"
       inkscape:vp_z="1 : 0.5 : 1"
       inkscape:vp_y="0 : 1000 : 0"
       inkscape:vp_x="0 : 0.5 : 1"
       sodipodi:type="inkscape:persp3d" />
    <filter
       color-interpolation-filters="sRGB"
       id="filter7120-8">
      <feGaussianBlur
         stdDeviation="3.92425"
         id="feGaussianBlur12-7" />
    </filter>
    <inkscape:perspective
       id="perspective5799"
       inkscape:persp3d-origin="0.5 : 0.33333333 : 1"
       inkscape:vp_z="1 : 0.5 : 1"
       inkscape:vp_y="0 : 1000 : 0"
       inkscape:vp_x="0 : 0.5 : 1"
       sodipodi:type="inkscape:persp3d" />
    <filter
       inkscape:collect="always"
       id="filter5845">
      <feGaussianBlur
         inkscape:collect="always"
         stdDeviation="1.6583789"
         id="feGaussianBlur5847" />
    </filter>
  </defs>
  <sodipodi:namedview
     id="base"
     pagecolor="#ffffff"
     bordercolor="#666666"
     borderopacity="1.0"
     gridtolerance="10000"
     guidetolerance="10000"
     objecttolerance="10000"
     inkscape:pageopacity="0.0"
     inkscape:pageshadow="2"
     inkscape:zoom="0.49497475"
     inkscape:cx="252.45374"
     inkscape:cy="463.89574"
     inkscape:document-units="px"
     inkscape:current-layer="layer1"
     showgrid="true"
     inkscape:object-bbox="true"
     inkscape:object-points="true"
     inkscape:object-nodes="true"
     inkscape:grid-points="true"
     inkscape:guide-points="true"
     inkscape:window-width="1024"
     inkscape:window-height="576"
     inkscape:window-x="0"
     inkscape:window-y="-3"
     width="524.40945px"
     height="744.09449px"
     inkscape:window-maximized="1" />
  <metadata
     id="metadata7">
    <rdf:RDF>
      <cc:Work
         rdf:about="">
        <dc:format>image/svg+xml</dc:format>
        <dc:type
           rdf:resource="http://purl.org/dc/dcmitype/StillImage" />
        <dc:title></dc:title>
      </cc:Work>
    </rdf:RDF>
  </metadata>
  <g
     inkscape:label="Layer 1"
     inkscape:groupmode="layer"
     id="layer1">
    <path
       sodipodi:type="arc"
       style="opacity:0.53736656;fill:#000000;fill-opacity:1;stroke:#c8c8c8;stroke-width:10.20100021;stroke-linecap:round;stroke-linejoin:round;stroke-miterlimit:4;stroke-opacity:0;stroke-dasharray:none;filter:url(#filter5845)"
       id="path5761-9"
       sodipodi:cx="114.06693"
       sodipodi:cy="152.09818"
       sodipodi:rx="82.879425"
       sodipodi:ry="82.879425"
       d="m 196.94636,152.09818 a 82.879425,82.879425 0 1 1 -165.758852,0 82.879425,82.879425 0 1 1 165.758852,0 z"
       transform="matrix(3.4302386,0,0,3.1262227,-144.1547,-161.52022)" />
    <path
       sodipodi:type="arc"
       style="fill:#214478;fill-opacity:1;stroke:#c8c8c8;stroke-width:10.20100021;stroke-linecap:round;stroke-linejoin:round;stroke-miterlimit:4;stroke-opacity:0;stroke-dasharray:none"
       id="path5761"
       sodipodi:cx="114.06693"
       sodipodi:cy="152.09818"
       sodipodi:rx="82.879425"
       sodipodi:ry="82.879425"
       d="m 196.94636,152.09818 a 82.879425,82.879425 0 1 1 -165.758852,0 82.879425,82.879425 0 1 1 165.758852,0 z"
       transform="matrix(3.3283635,0,0,3.2854659,-131.24986,-202.67706)" />
    <g
       id="g6728"
       transform="matrix(0,6.7791016,-5.8234238,-0.06211439,2709.2015,-2033.8616)">
      <path
         sodipodi:nodetypes="cssssc"
         id="path5112"
         d="m 350.47717,448.79329 c -7.98284,-4.3261 -13.74977,-12.22683 -15.14922,-21.55062 -0.216,-1.43908 -0.32795,-2.91205 -0.32795,-4.41101 0,-0.5582 0.0155,-1.11279 0.0462,-1.66337 0.0959,-1.7226 0.33971,-3.40594 0.71901,-5.03748 1.85666,-7.98624 6.95898,-14.73158 13.83957,-18.76863"
         style="fill:none;stroke:#c8c8c8;stroke-width:1.70022094;stroke-linecap:round;stroke-linejoin:round;stroke-miterlimit:4;stroke-opacity:1;stroke-dasharray:none;stroke-dashoffset:5;marker-start:none" />
      <path
         style="fill:none;stroke:#c8c8c8;stroke-width:1.68172038;stroke-linecap:round;stroke-linejoin:round;stroke-miterlimit:4;stroke-opacity:1;stroke-dasharray:none;stroke-dashoffset:5"
         d="m 345.98723,457.02227 c -10.53734,-5.71045 -18.14969,-16.13942 -19.99697,-28.44682 -0.28512,-1.89959 -0.43289,-3.84391 -0.43289,-5.82253 0,-0.73683 0.0205,-1.46889 0.061,-2.19565 0.12659,-2.27383 0.44842,-4.49584 0.9491,-6.64948 2.45079,-10.54183 9.18585,-19.44568 18.26823,-24.77459"
         id="path3607"
         sodipodi:nodetypes="cssssc" />
      <path
         style="fill:none;stroke:#c8c8c8;stroke-width:1.62090814;stroke-linecap:round;stroke-linejoin:round;stroke-miterlimit:4;stroke-opacity:1;stroke-dasharray:none;stroke-dashoffset:5"
         d="m 341.38609,465.45502 c -13.15511,-7.12908 -22.65857,-20.14887 -24.96475,-35.51376 -0.35596,-2.3715 -0.54044,-4.79884 -0.54044,-7.26901 0,-0.91987 0.0255,-1.83379 0.0761,-2.7411 0.15804,-2.83872 0.55982,-5.61273 1.18488,-8.30138 3.05963,-13.16071 11.46786,-24.27652 22.80654,-30.92926"
         id="path3613"
         sodipodi:nodetypes="cssssc" />
    </g>
    <path
       d="m 135.42105,505.54512 c -63.874298,0 -115.718758,72.97785 -115.718758,162.875 0,89.89715 51.84446,162.84376 115.718758,162.84375 50.82546,0 94.03067,-46.17849 109.5625,-110.34375 l 94.65625,0 32.375,-39.21875 21.34375,0 14.375,14.375 34.46875,0 5.71875,-9.875 33.21875,0 15.3125,26.53125 28.09375,0 18.21875,-18.21875 24.1875,0 21.03125,21.03125 26.40625,0 52.65625,-52.65625 0,-15.53125 -11.8125,-3.15625 -31.53125,-31.53125 -379.53125,0 c -16.1877,-62.46401 -58.78951,-107.12499 -108.75,-107.125 z m -44.281258,105.0625 c 20.502868,10e-6 37.125008,25.90338 37.125008,57.8125 0,31.90912 -16.62214,57.8125 -37.125008,57.8125 -20.50285,0 -37.15625,-25.90338 -37.15625,-57.8125 0,-31.90913 16.65339,-57.8125 37.15625,-57.8125 z"
       style="opacity:0.56000001;stroke:#000000;stroke-width:4;filter:url(#filter7120)"
       id="path17"
       transform="matrix(0.56027664,0,0,0.4908972,55.784282,92.843469)" />
    <path
       d="m 126.05478,343.95954 c -35.78728,0 -64.834523,35.82461 -64.834523,79.95488 0,44.13025 29.047243,79.93954 64.834523,79.93953 28.47633,0 52.68318,-22.66889 61.3853,-54.16743 l 53.0337,0 18.13895,-19.25238 11.9584,0 8.05399,7.05665 19.31203,0 3.20408,-4.84761 18.61169,0 8.57924,13.02411 15.74028,0 10.20751,-8.94354 13.55171,0 11.78331,10.3242 14.79481,0 29.50207,-25.84882 0,-7.62425 -6.61826,-1.54939 -17.66622,-15.4786 -212.6425,0 c -9.0696,-30.66339 -32.9384,-52.58735 -60.93009,-52.58735 z m -24.80976,51.57488 c 11.48727,0 20.80028,12.7159 20.80028,28.38 0,15.66408 -9.31301,28.37999 -20.80028,28.37999 -11.48727,0 -20.817787,-12.71591 -20.817787,-28.37999 0,-15.66411 9.330517,-28.38 20.817787,-28.38 z"
       style="fill:#ffffcc;stroke:#000000;stroke-width:2.09776354"
       id="path19" />
    <path
       d="m 417.29359,412.02549 -11.96192,-10.48065 0.85961,0.47962 c 0,0 -156.95885,1.36975 -176.34422,1.36975 -19.38535,0 -22.82468,8.63128 -22.82468,8.63128 l 55.21031,0 c 120.35169,0 103.69399,0 155.0609,0 z"
       style="fill:#4d4d4d;stroke:#000000;stroke-width:0.99643767"
       id="path21"
       sodipodi:nodetypes="cccsccc" />
    <path
       d="m 126.05478,343.95954 c -35.78728,0 -64.834523,35.82461 -64.834523,79.95488 0,44.13025 29.047243,79.93954 64.834523,79.93953 28.47633,0 52.68318,-22.66889 61.3853,-54.16743 l 53.0337,0 18.13895,-19.25238 11.9584,0 8.05399,7.05665 19.31203,0 3.20408,-4.84761 18.61169,0 8.57924,13.02411 15.74028,0 10.20751,-8.94354 13.55171,0 11.78331,10.3242 14.79481,0 29.50207,-25.84882 0,-7.62425 -6.61826,-1.54939 -17.66622,-15.4786 -212.6425,0 c -9.0696,-30.66339 -32.9384,-52.58735 -60.93009,-52.58735 z m -24.80976,51.57488 c 11.48727,0 20.80028,12.7159 20.80028,28.38 0,15.66408 -9.31301,28.37999 -20.80028,28.37999 -11.48727,0 -20.817787,-12.71591 -20.817787,-28.37999 0,-15.66411 9.330517,-28.38 20.817787,-28.38 z"
       style="fill:none;stroke:#000000;stroke-width:2.09776354"
       id="path23" />
    <path
       style="fill:#cccccc"
       d="M 117.71209,498.65886 C 94.646663,491.9475 77.85527,472.88824 70.240315,444.77547 c -3.360977,-12.40803 -2.920544,-35.78353 0.914028,-48.51069 11.384428,-37.78555 41.815677,-59.31495 72.333167,-51.17402 20.86807,5.56681 33.47637,18.385 46.14481,46.91295 l 1.6011,3.60552 106.30041,0 c 87.01525,0 106.58819,0.3182 107.88667,1.7539 1.31772,1.45697 -7.88391,1.90089 -54.35302,2.6222 -30.7666,0.47756 -70.78265,0.87159 -88.92459,0.87562 -34.96047,0.007 -41.2902,0.79347 -47.62804,5.91223 l -3.93152,3.17529 104.56572,0.0414 c 64.36734,0.0255 105.97466,0.53298 108.2307,1.32008 6.86977,2.39674 4.80495,6.38048 -10.42275,20.10908 -13.97566,12.59981 -14.14387,12.70087 -21.14187,12.70087 -6.34714,0 -7.61339,-0.52559 -12.63479,-5.2444 -5.12185,-4.81321 -6.20263,-5.24441 -13.14496,-5.24441 -6.63799,0 -8.24204,0.56192 -13.09948,4.58885 -4.6497,3.85472 -6.59542,4.58885 -12.16202,4.58885 -6.41351,0 -6.76826,-0.21097 -11.0225,-6.55549 l -4.39571,-6.5555 -10.24967,0 c -8.70228,0 -10.51908,0.39587 -12.03426,2.6222 -1.4516,2.13294 -3.33196,2.6222 -10.07788,2.6222 -7.34969,0 -8.76058,-0.44754 -12.39991,-3.9333 -3.43415,-3.28923 -5.21773,-3.9333 -10.89228,-3.9333 -6.68491,0 -6.91964,0.14551 -15.80654,9.79759 l -9.02089,9.7976 -26.83461,0.0356 c -24.28945,0.0323 -26.90805,0.25327 -27.60866,2.33008 -12.53771,37.16486 -43.32642,58.17463 -72.71888,49.6223 z m 0.93868,-52.76946 c 5.87096,-5.16143 9.07249,-13.94577 9.00713,-24.71372 -0.17096,-28.1713 -26.41906,-38.6974 -39.638667,-15.89605 -4.199348,7.24307 -4.490742,25.22335 -0.52762,32.55662 7.42713,13.74305 20.765767,17.19044 31.159157,8.05315 l 0,0 z"
       id="path2888" />
    <path
       style="fill:#ececec"
       d=""
       id="path2831" />
  </g>
</svg>
